<svg width="20" height="20" viewBox="0 0 20 20" fill="none" xmlns="http://www.w3.org/2000/svg">
<g clip-path="url(#clip0_1148_1729)">
<path d="M17.5002 0H8.3335C7.67106 0.00197841 7.03633 0.266006 6.56791 0.734419C6.0995 1.20283 5.83547 1.83757 5.8335 2.5V7.5H13.3335C13.9965 7.5 14.6324 7.76339 15.1013 8.23223C15.5701 8.70107 15.8335 9.33696 15.8335 10C15.8335 10.663 15.5701 11.2989 15.1013 11.7678C14.6324 12.2366 13.9965 12.5 13.3335 12.5H5.8335V17.5C5.83547 18.1624 6.0995 18.7972 6.56791 19.2656C7.03633 19.734 7.67106 19.998 8.3335 20H17.5002C18.1626 19.998 18.7973 19.734 19.2657 19.2656C19.7342 18.7972 19.9982 18.1624 20.0002 17.5V2.5C19.9982 1.83757 19.7342 1.20283 19.2657 0.734419C18.7973 0.266006 18.1626 0.00197841 17.5002 0Z" fill="#606060"/>
<path d="M2.84164 10.8332H13.3333C13.5543 10.8332 13.7663 10.7454 13.9226 10.5891C14.0788 10.4328 14.1666 10.2208 14.1666 9.99983C14.1666 9.77882 14.0788 9.56685 13.9226 9.41057C13.7663 9.25429 13.5543 9.1665 13.3333 9.1665H2.84164L3.92497 8.0915C4.08189 7.93458 4.17005 7.72175 4.17005 7.49983C4.17005 7.27791 4.08189 7.06508 3.92497 6.90816C3.76805 6.75124 3.55522 6.66309 3.3333 6.66309C3.11139 6.66309 2.89856 6.75124 2.74164 6.90816L0.241638 9.40816C0.0911157 9.5684 0.00732422 9.77998 0.00732422 9.99983C0.00732422 10.2197 0.0911157 10.4313 0.241638 10.5915L2.74164 13.0915C2.90121 13.2433 3.11304 13.328 3.3333 13.328C3.55357 13.328 3.7654 13.2433 3.92497 13.0915C4.0811 12.9342 4.16871 12.7215 4.16871 12.4998C4.16871 12.2782 4.0811 12.0655 3.92497 11.9082L2.84164 10.8332Z" fill="#606060"/>
</g>
<defs>
<clipPath id="clip0_1148_1729">
<rect width="20" height="20" fill="white"/>
</clipPath>
</defs>
</svg>
